<svg width="118" height="46" viewBox="0 0 118 46" fill="none" xmlns="http://www.w3.org/2000/svg">
<path d="M0 4V13.5L28.5 42H38V32.5L9.5 4H0ZM0 42H19L0 23V42ZM19 4L38 23V4H19Z" fill="white"/>
<path d="M52.4 36.4C51.28 36.4 50.16 36.32 49.04 36.16C47.92 36 47.04 35.8133 46.4 35.6V33.8H51.6C53.84 33.8 55.4267 33.4 56.36 32.6C57.32 31.8 57.8 30.5333 57.8 28.8C57.8 27.8133 57.5867 27 57.16 26.36C56.7333 25.6933 56.2 25.16 55.56 24.76C54.92 24.36 54.0267 23.8933 52.88 23.36C51.4933 22.7467 50.36 22.1467 49.48 21.56C48.6267 20.9733 47.8933 20.1333 47.28 19.04C46.6933 17.9467 46.4 16.5333 46.4 14.8C46.4 12.3733 47.0133 10.5733 48.24 9.4C49.4933 8.2 51.4133 7.6 54 7.6C55.12 7.6 56.24 7.68 57.36 7.84C58.48 8 59.36 8.18667 60 8.4V10.2H54.8C53.2 10.2 52 10.5867 51.2 11.36C50.4 12.1333 50 13.28 50 14.8C50 15.8667 50.2267 16.76 50.68 17.48C51.1333 18.1733 51.6933 18.7333 52.36 19.16C53.0533 19.5867 53.9733 20.0667 55.12 20.6C56.5067 21.2667 57.6 21.88 58.4 22.44C59.2267 23 59.9333 23.8 60.52 24.84C61.1067 25.8533 61.4 27.1733 61.4 28.8C61.4 31.44 60.7067 33.3733 59.32 34.6C57.96 35.8 55.6533 36.4 52.4 36.4ZM63.2219 36L70.0219 8H75.2219L82.0219 36H78.4219L76.6219 28.8H68.6219L66.8219 36H63.2219ZM69.2219 26H76.0219L72.7019 12H72.5419L69.2219 26ZM88.4109 36V27.2L81.6109 8H85.2109L90.2109 22.2L95.2109 8H98.8109L92.0109 27.2V36H88.4109ZM102.019 36V8H115.619V10.8H105.619V20H114.419V22.8H105.619V33.2H115.619V36H102.019Z" fill="white"/>
</svg>
